<svg width="115" height="58" viewBox="0 0 115 58" fill="none" xmlns="http://www.w3.org/2000/svg">
<path d="M21.2896 0.631999C24.2656 0.631999 26.3936 1.112 27.6736 2.072C28.9536 3.032 29.5936 4.2 29.5936 5.576C29.5936 6.92 29.1296 8.184 28.2016 9.368C27.3056 10.52 26.0416 11.096 24.4096 11.096C22.7776 11.096 21.9616 10.408 21.9616 9.032C21.9616 8.904 21.9936 8.648 22.0576 8.264C22.9216 8.264 23.6736 7.928 24.3136 7.256C24.9536 6.584 25.2736 5.848 25.2736 5.048C25.2736 4.248 24.8896 3.592 24.1216 3.08C23.3536 2.568 22.4256 2.312 21.3376 2.312C19.4816 2.312 17.9456 2.872 16.7296 3.992C15.5136 5.112 14.9056 6.424 14.9056 7.928C14.9056 8.728 15.1936 9.608 15.7696 10.568C16.3456 11.528 16.8896 12.296 17.4016 12.872C17.9456 13.416 18.8096 14.248 19.9936 15.368C21.2096 16.456 21.9296 17.112 22.1536 17.336C24.5856 19.768 25.8016 22.424 25.8016 25.304C25.8016 28.152 24.5056 30.648 21.9136 32.792C19.3216 34.904 16.2176 35.96 12.6016 35.96C9.65763 35.96 7.27363 35.48 5.44963 34.52C3.65763 33.56 2.76163 32.056 2.76163 30.008C2.76163 28.888 3.12963 27.864 3.86563 26.936C4.60163 26.008 5.64163 25.544 6.98563 25.544C8.36163 25.544 9.28963 26.024 9.76963 26.984C8.64963 27.88 8.08963 28.968 8.08963 30.248C8.08963 31.496 8.50563 32.472 9.33763 33.176C10.2016 33.848 11.3216 34.184 12.6976 34.184C14.6176 34.184 16.2976 33.496 17.7376 32.12C19.2096 30.744 19.9456 29.016 19.9456 26.936C19.9456 24.824 18.5696 22.312 15.8176 19.4C15.7856 19.336 15.2256 18.744 14.1376 17.624C13.0496 16.472 12.1376 15.304 11.4016 14.12C10.6976 12.936 10.3456 11.528 10.3456 9.896C10.3456 7.112 11.4336 4.872 13.6096 3.176C15.7856 1.48 18.3456 0.631999 21.2896 0.631999ZM62.6885 25.352C61.5045 27.336 60.4165 29 59.4245 30.344C58.4645 31.656 57.3605 32.808 56.1125 33.8C54.8645 34.792 53.7285 35.288 52.7045 35.288C50.8165 35.288 49.8725 34.2 49.8725 32.024C49.8725 29.496 50.8805 25.896 52.8965 21.224C53.3445 20.04 53.5685 19.224 53.5685 18.776C53.5685 18.136 53.2805 17.816 52.7045 17.816C52.3525 17.816 51.7445 18.024 50.8805 18.44C50.0165 18.856 49.1845 19.48 48.3845 20.312C47.6165 21.144 46.9925 21.912 46.5125 22.616C46.0325 23.32 45.5045 24.376 44.9285 25.784C44.3525 27.192 43.9685 28.184 43.7765 28.76C42.8485 31.64 42.2245 33.72 41.9045 35H37.2005C38.8645 30.392 40.0005 27.288 40.6085 25.688C41.2485 24.088 41.6325 23.096 41.7605 22.712L42.1925 21.368C42.5445 20.344 42.7205 19.496 42.7205 18.824C42.7205 18.152 42.4165 17.816 41.8085 17.816C41.2965 17.816 40.5925 18.04 39.6965 18.488C38.8325 18.936 37.9845 19.592 37.1525 20.456C36.3205 21.32 35.6165 22.328 35.0405 23.48C34.4965 24.6 34.0485 25.576 33.6965 26.408C33.3765 27.24 33.0405 28.264 32.6885 29.48C32.3365 30.664 32.0165 31.64 31.7285 32.408C31.4725 33.144 31.2005 34.008 30.9125 35H26.2565C26.6085 33.656 26.9925 32.456 27.4085 31.4L30.5285 23.432C31.8085 20.232 32.4485 17.896 32.4485 16.424C32.4485 16.104 32.4165 15.896 32.3525 15.8H34.3685C35.4565 15.8 36.1605 15.912 36.4805 16.136C36.8005 16.328 36.9605 16.6 36.9605 16.952C36.9605 17.304 36.7685 18.12 36.3845 19.4C39.2005 16.84 42.0165 15.56 44.8325 15.56C46.5285 15.56 47.3765 16.264 47.3765 17.672C47.3765 18.28 47.2005 19.032 46.8485 19.928C49.7605 17.016 52.7525 15.56 55.8245 15.56C57.4885 15.56 58.3205 16.264 58.3205 17.672C58.3205 18.312 58.2085 18.92 57.9845 19.496C57.7605 20.072 57.4725 20.824 57.1205 21.752C56.7685 22.648 56.4805 23.4 56.2565 24.008C56.0325 24.584 55.7765 25.304 55.4885 26.168C54.8805 27.928 54.5765 29.24 54.5765 30.104C54.5765 30.936 54.8325 31.352 55.3445 31.352C55.8885 31.352 56.5605 31 57.3605 30.296C58.1605 29.592 58.7525 28.984 59.1365 28.472C59.5525 27.96 60.0485 27.24 60.6245 26.312C61.2325 25.352 61.7445 24.52 62.1605 23.816C62.5765 23.112 62.8165 22.76 62.8805 22.76C63.0725 22.76 63.1685 23.064 63.1685 23.672C63.1685 24.248 63.0085 24.808 62.6885 25.352ZM80.5944 15.8L82.9944 15.848H83.4744C82.4184 16.712 81.1224 18.904 79.5864 22.424C78.0504 25.912 77.2824 28.456 77.2824 30.056C77.2824 30.888 77.5704 31.304 78.1464 31.304C80.0024 31.304 82.3704 28.568 85.2504 23.096C85.3784 22.872 85.4904 22.76 85.5864 22.76C85.7784 22.76 85.8744 23.064 85.8744 23.672C85.8744 24.248 85.7144 24.808 85.3944 25.352C81.4584 31.976 78.1624 35.288 75.5064 35.288C73.7784 35.288 72.9144 33.96 72.9144 31.304C72.9144 29.32 73.2504 27.368 73.9224 25.448C70.2744 31.912 66.8984 35.144 63.7944 35.144C61.6504 35.144 60.5784 33.672 60.5784 30.728C60.5784 28.488 61.0584 26.216 62.0184 23.912C63.0104 21.608 64.4184 19.656 66.2424 18.056C68.0664 16.424 70.0664 15.608 72.2424 15.608C73.2664 15.608 74.2264 15.848 75.1224 16.328C76.0184 16.776 76.6104 17.512 76.8984 18.536C77.2504 17.8 77.7944 17.16 78.5304 16.616C79.2664 16.072 79.9544 15.8 80.5944 15.8ZM76.6104 18.968C76.2904 17.944 75.5384 17.432 74.3544 17.432C72.2424 17.432 70.1944 18.904 68.2104 21.848C66.2264 24.76 65.2344 27.368 65.2344 29.672C65.2344 30.664 65.6184 31.16 66.3864 31.16C67.2184 31.16 68.1944 30.648 69.3144 29.624C70.4344 28.568 71.4424 27.336 72.3384 25.928C74.3224 22.792 75.7464 20.472 76.6104 18.968ZM96.5139 15.704L98.9619 15.752H99.4419C98.9619 16.104 98.2739 17.144 97.3779 18.872C96.5139 20.6 95.8579 21.912 95.4099 22.808C94.9939 23.672 94.5139 24.856 93.9699 26.36C93.4579 27.832 93.2019 29.032 93.2019 29.96C93.2019 30.888 93.5219 31.352 94.1619 31.352C94.5779 31.32 95.1539 31.032 95.8899 30.488C96.6579 29.912 97.2819 29.32 97.7619 28.712C98.2739 28.072 98.8179 27.272 99.3939 26.312C100.002 25.32 100.514 24.472 100.93 23.768C101.378 23.032 101.634 22.664 101.698 22.664C101.922 22.664 102.034 22.968 102.034 23.576C102.034 24.152 101.874 24.712 101.554 25.256C100.178 27.528 99.0419 29.272 98.1459 30.488C97.2499 31.704 96.1619 32.824 94.8819 33.848C93.6339 34.84 92.4979 35.336 91.4739 35.336C89.6499 35.336 88.7379 33.992 88.7379 31.304C88.7379 29.48 89.0899 27.416 89.7939 25.112C90.4979 22.808 91.5379 20.584 92.9139 18.44C91.7939 19.336 90.6739 19.784 89.5539 19.784C89.2019 19.784 88.8339 19.704 88.4499 19.544C86.1779 24.024 84.9459 26.264 84.7539 26.264C84.5939 26.264 84.5139 26.008 84.5139 25.496C84.5139 24.952 84.7059 24.216 85.0899 23.288C85.5059 22.328 85.9379 21.416 86.3859 20.552C86.8659 19.688 87.1219 19.208 87.1539 19.112C86.0019 18.536 85.4259 17.608 85.4259 16.328C85.4259 15.688 85.6179 15.112 86.0019 14.6C86.4179 14.088 86.9779 13.832 87.6819 13.832C88.3859 13.832 88.9619 14.056 89.4099 14.504C89.3459 14.696 89.3139 14.984 89.3139 15.368C89.3139 16.232 89.6179 16.92 90.2259 17.432C90.8659 17.912 91.6339 18.152 92.5299 18.152C92.7859 18.152 92.9779 18.136 93.1059 18.104C94.2259 16.504 95.3619 15.704 96.5139 15.704ZM114.655 7.496C113.087 8.584 111.327 11.368 109.375 15.848H114.223L114.271 15.896C114.271 16.056 114.095 16.344 113.743 16.76C113.391 17.144 113.087 17.336 112.831 17.336H108.703C106.175 23.608 104.911 27.64 104.911 29.432C104.911 30.648 105.295 31.256 106.063 31.256C107.183 31.256 108.495 30.296 109.999 28.376C110.351 27.96 110.815 27.256 111.391 26.264C112.863 23.896 113.631 22.712 113.695 22.712C113.887 22.712 113.983 22.968 113.983 23.48C113.951 24.696 112.623 27.064 109.999 30.584C109.135 31.736 108.095 32.808 106.879 33.8C105.663 34.792 104.559 35.288 103.567 35.288C101.743 35.288 100.831 34.008 100.831 31.448C100.831 29.304 101.343 26.84 102.367 24.056V24.008C101.759 25.128 101.231 25.96 100.783 26.504C100.367 27.048 100.127 27.32 100.063 27.32C99.9349 27.32 99.8709 27.128 99.8709 26.744C99.8709 26.328 100.079 25.672 100.495 24.776C100.943 23.88 101.535 22.712 102.271 21.272C103.039 19.832 103.663 18.52 104.143 17.336H100.927C100.831 17.336 100.783 17.272 100.783 17.144C100.783 16.984 100.895 16.728 101.119 16.376C101.375 16.024 101.567 15.848 101.695 15.848H105.343C107.647 10.312 109.983 7.544 112.351 7.544C113.727 7.544 114.495 7.528 114.655 7.496Z" fill="#F89D18"/>
<path d="M77.1995 34.816C78.6875 34.816 79.7515 35.056 80.3915 35.536C81.0315 36.016 81.3515 36.6 81.3515 37.288C81.3515 37.96 81.1195 38.592 80.6555 39.184C80.2075 39.76 79.5755 40.048 78.7595 40.048C77.9435 40.048 77.5355 39.704 77.5355 39.016C77.5355 38.952 77.5515 38.824 77.5835 38.632C78.0155 38.632 78.3915 38.464 78.7115 38.128C79.0315 37.792 79.1915 37.424 79.1915 37.024C79.1915 36.624 78.9995 36.296 78.6155 36.04C78.2315 35.784 77.7675 35.656 77.2235 35.656C76.2955 35.656 75.5275 35.936 74.9195 36.496C74.3115 37.056 74.0075 37.712 74.0075 38.464C74.0075 38.864 74.1515 39.304 74.4395 39.784C74.7275 40.264 74.9995 40.648 75.2555 40.936C75.5275 41.208 75.9595 41.624 76.5515 42.184C77.1595 42.728 77.5195 43.056 77.6315 43.168C78.8475 44.384 79.4555 45.712 79.4555 47.152C79.4555 48.576 78.8075 49.824 77.5115 50.896C76.2155 51.952 74.6635 52.48 72.8555 52.48C71.3835 52.48 70.1915 52.24 69.2795 51.76C68.3835 51.28 67.9355 50.528 67.9355 49.504C67.9355 48.944 68.1195 48.432 68.4875 47.968C68.8555 47.504 69.3755 47.272 70.0475 47.272C70.7355 47.272 71.1995 47.512 71.4395 47.992C70.8795 48.44 70.5995 48.984 70.5995 49.624C70.5995 50.248 70.8075 50.736 71.2235 51.088C71.6555 51.424 72.2155 51.592 72.9035 51.592C73.8635 51.592 74.7035 51.248 75.4235 50.56C76.1595 49.872 76.5275 49.008 76.5275 47.968C76.5275 46.912 75.8395 45.656 74.4635 44.2C74.4475 44.168 74.1675 43.872 73.6235 43.312C73.0795 42.736 72.6235 42.152 72.2555 41.56C71.9035 40.968 71.7275 40.264 71.7275 39.448C71.7275 38.056 72.2715 36.936 73.3595 36.088C74.4475 35.24 75.7275 34.816 77.1995 34.816ZM91.49 47.176C89.522 50.488 87.858 52.144 86.498 52.144C85.554 52.144 85.082 51.6 85.082 50.512C85.082 49.248 85.586 47.448 86.594 45.112C86.818 44.52 86.93 44.112 86.93 43.888C86.93 43.568 86.786 43.408 86.498 43.408C86.306 43.408 85.978 43.52 85.514 43.744C85.066 43.968 84.634 44.296 84.218 44.728C83.802 45.16 83.45 45.664 83.162 46.24C82.89 46.8 82.666 47.288 82.49 47.704C82.33 48.12 82.162 48.632 81.986 49.24C81.81 49.832 81.65 50.32 81.506 50.704C81.378 51.072 81.242 51.504 81.098 52H78.77C79.202 50.896 79.818 49.136 80.618 46.72C81.434 44.288 82.13 42.384 82.706 41.008C83.282 39.616 83.842 38.448 84.386 37.504C84.946 36.544 85.578 35.744 86.282 35.104C87.002 34.464 87.754 34.144 88.538 34.144C89.338 34.144 89.738 34.52 89.738 35.272C89.738 35.8 89.522 36.496 89.09 37.36C88.162 39.184 86.61 41.296 84.434 43.696C85.298 43.072 85.978 42.664 86.474 42.472C86.986 42.28 87.474 42.184 87.938 42.184C88.85 42.184 89.306 42.584 89.306 43.384C89.306 43.704 89.25 44 89.138 44.272C89.026 44.544 88.898 44.856 88.754 45.208C88.626 45.56 88.514 45.848 88.418 46.072C88.338 46.296 88.226 46.6 88.082 46.984C87.938 47.368 87.826 47.696 87.746 47.968C87.538 48.64 87.434 49.176 87.434 49.576C87.434 49.976 87.57 50.176 87.842 50.176C88.802 50.176 90.002 48.784 91.442 46C91.49 45.888 91.546 45.832 91.61 45.832C91.69 45.832 91.73 45.984 91.73 46.288C91.73 46.576 91.65 46.872 91.49 47.176ZM88.586 34.744C88.026 34.744 87.29 35.632 86.378 37.408C85.482 39.184 84.602 41.224 83.738 43.528C85.93 40.952 87.426 38.84 88.226 37.192C88.674 36.184 88.898 35.528 88.898 35.224C88.898 34.904 88.794 34.744 88.586 34.744ZM102.181 46.096C102.229 46 102.277 45.952 102.325 45.952C102.421 45.952 102.469 46.072 102.469 46.312C102.469 47.08 102.157 47.72 101.533 48.232C100.925 48.728 100.349 48.976 99.8054 48.976C99.2774 48.976 98.8214 48.824 98.4374 48.52C97.8614 49.656 97.1734 50.552 96.3734 51.208C95.5894 51.864 94.5734 52.192 93.3254 52.192C92.5254 52.192 91.8694 51.952 91.3574 51.472C90.8614 50.976 90.6134 50.232 90.6134 49.24C90.6134 48.232 90.8374 47.2 91.2854 46.144C91.7494 45.072 92.4374 44.152 93.3494 43.384C94.2774 42.616 95.3094 42.232 96.4454 42.232C98.3494 42.232 99.3014 43.24 99.3014 45.256C99.3014 46.024 99.1334 46.832 98.7974 47.68C99.0374 48.016 99.3814 48.184 99.8294 48.184C100.661 48.184 101.445 47.488 102.181 46.096ZM98.1734 44.608C98.1094 43.76 97.7254 43.336 97.0214 43.336C95.9174 43.336 94.8374 44.408 93.7814 46.552C93.2054 47.736 92.9174 48.808 92.9174 49.768C92.9174 50.728 93.3334 51.232 94.1654 51.28C94.8534 51.28 95.4854 50.92 96.0614 50.2C96.6534 49.464 97.1494 48.656 97.5494 47.776C97.0054 47.312 96.7334 46.728 96.7334 46.024C96.7334 45.592 96.8454 45.248 97.0694 44.992C97.3094 44.736 97.6294 44.608 98.0294 44.608H98.1734ZM111.907 46.864C110.947 48.624 109.907 49.992 108.787 50.968C107.667 51.944 106.339 52.432 104.803 52.432C103.267 52.432 102.403 52.04 102.211 51.256L100.867 55.456C100.547 56.4 100.307 57.008 100.147 57.28C99.9707 57.568 99.7787 57.752 99.5707 57.832C99.3627 57.912 99.0987 57.952 98.7787 57.952H97.6267C98.0427 57.344 98.8827 55.248 100.147 51.664C101.411 48.064 102.243 45.768 102.643 44.776C103.059 43.784 103.363 43.184 103.555 42.976C103.939 42.592 104.603 42.4 105.547 42.4H106.267C105.803 42.72 105.171 43.68 104.371 45.28C105.859 43.296 107.171 42.304 108.307 42.304C109.379 42.304 109.915 43.04 109.915 44.512C109.915 45.728 109.531 46.976 108.763 48.256C107.995 49.536 107.091 50.528 106.051 51.232H106.243C106.899 51.232 107.563 50.968 108.235 50.44C108.923 49.912 109.515 49.328 110.011 48.688C110.283 48.336 110.667 47.744 111.163 46.912C111.659 46.064 111.923 45.64 111.955 45.64C112.083 45.64 112.147 45.776 112.147 46.048C112.147 46.32 112.067 46.592 111.907 46.864ZM107.227 44.344C107.179 44.328 107.107 44.32 107.011 44.32C106.675 44.32 106.307 44.48 105.907 44.8C105.251 45.312 104.555 46.16 103.819 47.344C103.083 48.528 102.715 49.496 102.715 50.248C102.715 51 102.947 51.376 103.411 51.376C104.243 51.376 105.147 50.552 106.123 48.904C107.099 47.256 107.587 45.968 107.587 45.04C107.587 44.64 107.467 44.408 107.227 44.344Z" fill="black"/>
</svg>
